<svg width="600" height="600" viewBox="0 0 500 500" fill="none" xmlns="http://www.w3.org/2000/svg">
<path d="M500.8 500.8H0.800049V0.800049H500.8V500.8Z" fill="#EFB7A0"/>
<path d="M491 491H11V11H491V491Z" fill="#D29A81"/>
<path d="M431 131H371V71.0001H431V131Z" fill="#987B67"/>
<path d="M311 131H251V71.0001H311V131Z" fill="#987B67"/>
<path d="M251 71H191V11H251V71Z" fill="#987B67"/>
<path d="M131 71H71V11H131V71Z" fill="#987B67"/>
<path d="M191 131H131V71.0001H191V131Z" fill="#987B67"/>
<path d="M71 131H11V71.0001H71V131Z" fill="#987B67"/>
<path d="M431 131H371V71.0001H431V131Z" fill="#987B67"/>
<path d="M311 131H251V71.0001H311V131Z" fill="#987B67"/>
<path d="M491 191H431V131H491V191Z" fill="#987B67"/>
<path d="M371 191H311V131H371V191Z" fill="#987B67"/>
<path d="M251 191H191V131H251V191Z" fill="#987B67"/>
<path d="M131 191H71V131H131V191Z" fill="#987B67"/>
<path d="M431 251H371V191H431V251Z" fill="#987B67"/>
<path d="M311 251H251V191H311V251Z" fill="#987B67"/>
<path d="M191 251H131V191H191V251Z" fill="#987B67"/>
<path d="M71 251H11V191H71V251Z" fill="#987B67"/>
<path d="M491 311H431V251H491V311Z" fill="#987B67"/>
<path d="M371 311H311V251H371V311Z" fill="#987B67"/>
<path d="M251 311H191V251H251V311Z" fill="#987B67"/>
<path d="M131 311H71V251H131V311Z" fill="#987B67"/>
<path d="M431 371H371V311H431V371Z" fill="#987B67"/>
<path d="M311 371H251V311H311V371Z" fill="#987B67"/>
<path d="M191 371H131V311H191V371Z" fill="#987B67"/>
<path d="M71 371H11V311H71V371Z" fill="#987B67"/>
<path d="M491 431H431V371H491V431Z" fill="#987B67"/>
<path d="M371 431H311V371H371V431Z" fill="#987B67"/>
<path d="M251 431H191V371H251V431Z" fill="#987B67"/>
<path d="M131 431H71V371H131V431Z" fill="#987B67"/>
<path d="M431 491H371V431H431V491Z" fill="#987B67"/>
<path d="M311 491H251V431H311V491Z" fill="#987B67"/>
<path d="M191 491H131V431H191V491Z" fill="#987B67"/>
<path d="M71 491H11V431H71V491Z" fill="#987B67"/>
<path d="M491 71H431V11H491V71Z" fill="#987B67"/>
<path d="M371 71H311V11H371V71Z" fill="#987B67"/>
</svg>
