<svg width="518" height="517" viewBox="0 0 518 517" fill="none" xmlns="http://www.w3.org/2000/svg">
<path d="M516.6 516.5H1V1H516.6V516.5Z" fill="#F9F6F1" stroke="#2A4089" stroke-dasharray="8 8"/>
<path d="M505.8 505.7H11.8V11.8H505.8V505.7Z" fill="#EFB7A0"/>
<path d="M497.4 494.5H20.2V23H497.4V494.5Z" fill="#D29A81"/>
<path d="M497.2 83.5H437.6V24H497.2V83.5Z" fill="#987B67"/>
<path d="M377.9 83.5H318.3V24H377.9V83.5Z" fill="#987B67"/>
<path d="M258.5 83.5H199V24H258.5V83.5Z" fill="#987B67"/>
<path d="M139.2 83.5H79.7V24H139.2V83.5Z" fill="#987B67"/>
<path d="M437.5 142.4H378V82.8H437.5V142.4Z" fill="#987B67"/>
<path d="M318.2 142.4H258.7V82.8H318.2V142.4Z" fill="#987B67"/>
<path d="M198.9 142.4H139.3V82.8H198.9V142.4Z" fill="#987B67"/>
<path d="M79.6 142.4H20V82.8H79.6V142.4Z" fill="#987B67"/>
<path d="M497.2 201.2H437.6V141.7H497.2V201.2Z" fill="#987B67"/>
<path d="M377.9 201.2H318.3V141.7H377.9V201.2Z" fill="#987B67"/>
<path d="M258.5 201.2H199V141.7H258.5V201.2Z" fill="#987B67"/>
<path d="M139.2 201.2H79.7V141.7H139.2V201.2Z" fill="#987B67"/>
<path d="M437.5 260.1H378V200.6H437.5V260.1Z" fill="#987B67"/>
<path d="M318.2 260.1H258.7V200.6H318.2V260.1Z" fill="#987B67"/>
<path d="M198.9 260.1H139.3V200.6H198.9V260.1Z" fill="#987B67"/>
<path d="M79.6 260.1H20V200.6H79.6V260.1Z" fill="#987B67"/>
<path d="M497.2 319H437.6V259.4H497.2V319Z" fill="#987B67"/>
<path d="M377.9 319H318.3V259.4H377.9V319Z" fill="#987B67"/>
<path d="M258.5 319H199V259.4H258.5V319Z" fill="#987B67"/>
<path d="M139.2 319H79.7V259.4H139.2V319Z" fill="#987B67"/>
<path d="M437.5 377.8H378V318.3H437.5V377.8Z" fill="#987B67"/>
<path d="M318.2 377.8H258.7V318.3H318.2V377.8Z" fill="#987B67"/>
<path d="M198.9 377.8H139.3V318.3H198.9V377.8Z" fill="#987B67"/>
<path d="M79.6 377.8H20V318.3H79.6V377.8Z" fill="#987B67"/>
<path d="M497.2 436.7H437.6V377.1H497.2V436.7Z" fill="#987B67"/>
<path d="M377.9 436.7H318.3V377.1H377.9V436.7Z" fill="#987B67"/>
<path d="M258.5 436.7H199V377.1H258.5V436.7Z" fill="#987B67"/>
<path d="M139.2 436.7H79.7V377.1H139.2V436.7Z" fill="#987B67"/>
<path d="M437.5 495.5H378V436H437.5V495.5Z" fill="#987B67"/>
<path d="M318.2 495.5H258.7V436H318.2V495.5Z" fill="#987B67"/>
<path d="M198.9 495.5H139.3V436H198.9V495.5Z" fill="#987B67"/>
<path d="M79.6 495.5H20V436H79.6V495.5Z" fill="#987B67"/>
</svg>
