<svg width="31" height="47" viewBox="0 0 31 47" fill="none" xmlns="http://www.w3.org/2000/svg">
<path d="M0.748819 35.5029C0.948819 33.3029 2.64887 31.9029 4.54887 31.6029C3.34887 30.2029 2.14884 28.8029 1.64884 27.0029C0.948843 24.8029 0.848843 22.1028 1.64884 19.9028C3.34884 15.8028 8.04887 12.5029 12.5489 12.2029C12.5489 11.5029 12.4489 10.7029 12.4489 10.0029C11.2489 10.0029 9.94882 10.1029 8.74882 10.0029C8.54882 10.0029 8.38215 9.96951 8.24882 9.90285C8.24882 9.90285 8.24882 9.86951 8.24882 9.80284C8.04882 9.70284 7.84879 9.50285 7.84879 9.20285C7.84879 8.00285 7.74882 6.70285 7.74882 5.50285C7.74882 5.20285 7.84889 5.00284 7.94889 4.80284C8.08222 4.66951 8.2822 4.60284 8.54887 4.60284C9.74887 4.60284 10.9155 4.60284 12.0489 4.60284C12.0489 3.40284 11.9489 2.20285 11.9489 1.00285C11.9489 0.602853 12.1489 0.402841 12.4489 0.302841C12.5822 0.236175 12.6822 0.20285 12.7488 0.20285C13.3488 0.10285 14.0488 0.20285 14.6488 0.20285C14.9488 0.20285 15.6489 0.102844 15.9489 0.102844C16.5489 0.102844 17.1488 0.102844 17.7488 0.102844C17.8822 0.102844 17.9822 0.136184 18.0489 0.20285C18.3489 0.30285 18.6488 0.602853 18.6488 1.00285C18.6488 2.10285 18.5489 3.30285 18.5489 4.50285C19.7489 4.50285 20.9155 4.50285 22.0489 4.50285C22.3155 4.50285 22.5155 4.56952 22.6488 4.70285C22.8488 4.80285 22.9489 5.00284 22.9489 5.30284C22.9489 6.50284 22.8488 7.80285 22.8488 9.00285C22.8488 9.30285 22.7489 9.50285 22.5489 9.70285C22.5489 9.70285 22.5156 9.70285 22.4489 9.70285C22.3156 9.83618 22.1822 9.90285 22.0489 9.90285C20.7489 10.0028 19.5488 9.90285 18.2488 9.90285C18.2488 10.6028 18.2488 11.4028 18.2488 12.1028C22.6488 12.3028 27.8488 15.5029 29.2488 19.6029C30.0488 21.8029 30.2489 24.5028 29.4489 26.7028C28.8489 28.5028 27.8488 29.9028 26.6488 31.3028C28.6488 31.6028 30.3488 33.0028 30.6488 35.2028C30.7488 36.3028 30.5489 37.8029 29.4489 38.5029C29.3822 38.5695 29.2822 38.6362 29.1488 38.7028C30.1488 39.6028 30.5489 41.0029 30.0489 42.6029C29.2489 45.1029 26.8488 45.2029 24.6488 45.0029C24.0488 46.6029 7.44889 46.8028 6.94889 45.2028C4.74889 45.4028 2.14889 45.5028 1.44889 42.9028C0.948892 41.3028 1.34882 39.9029 2.24882 39.0029C2.11549 38.9362 2.01556 38.8695 1.94889 38.8028C0.848892 38.1028 0.648819 36.7029 0.748819 35.5029Z" fill="white"/>
</svg>
