<svg width="36" height="51" viewBox="0 0 36 51" fill="none" xmlns="http://www.w3.org/2000/svg">
<g filter="url(#filter0_d_2_139)">
<path d="M31.3488 40.1029C30.8488 41.4029 28.6488 41.6028 27.5488 41.7028C24.3488 42.1028 11.3488 42.3028 8.04881 41.9028C6.94881 41.8028 4.7488 41.7028 4.3488 40.4028C4.0488 39.4028 4.14877 38.2028 4.94877 37.5028C5.44877 37.1028 6.14876 36.8028 6.74876 36.9028C6.64876 36.6028 6.54877 36.3028 6.44877 35.9028C6.44877 35.6028 6.44879 35.2028 6.64879 34.9028C6.84879 34.3028 7.44881 33.8028 8.04881 33.4028C8.74881 32.8028 9.64877 32.4028 10.4488 31.9028C11.4488 31.3028 11.8488 30.6028 11.4488 29.5028C11.3488 29.3028 11.2488 29.0028 11.5488 28.9028C13.1488 28.1028 13.9488 25.9028 14.4488 24.3028C14.8488 22.8028 15.4488 20.6028 14.6488 19.1028C12.7488 19.0028 11.4488 17.1028 11.7488 15.3028C12.0488 13.6028 13.3488 12.7029 14.9488 12.6028C14.9488 12.1028 14.4488 11.7028 14.0488 11.3028C13.6488 10.9028 13.3488 10.5028 13.0488 10.0028C12.4488 8.80284 12.2488 7.50284 12.6488 6.20284C13.2488 3.70284 15.3488 2.00283 17.0488 0.302832C17.2488 0.102832 17.5488 0.102832 17.6488 0.302832C19.5488 2.00283 21.8488 3.80284 22.3488 6.40284C22.6488 7.60284 22.4488 9.00283 21.8488 10.1028C21.5488 10.6028 21.2488 11.0028 20.8488 11.4028C20.4488 11.7028 20.0488 12.1028 20.1488 12.6028C21.8488 12.6028 23.1488 13.6028 23.3488 15.3028C23.6488 17.1028 22.3488 18.9028 20.6488 19.0028C19.8488 20.5028 20.4488 22.8028 20.9488 24.3028C21.4488 25.9028 22.2488 28.0028 23.9488 28.8028C24.1488 28.9028 24.0488 29.1028 23.9488 29.3028C23.6488 30.5028 24.1488 31.3028 25.2488 31.9028C26.0488 32.3028 26.8488 32.6028 27.5488 33.2028C28.0488 33.6028 28.7488 34.1028 29.0488 34.8028C29.1155 35.1362 29.1155 35.4695 29.0488 35.8028C29.0488 36.1028 28.9488 36.4029 28.8488 36.6029C30.6488 36.3029 31.9488 38.4029 31.3488 40.1029Z" fill="white"/>
</g>
<defs>
<filter id="filter0_d_2_139" x="0.193237" y="0.152832" width="35.3037" height="49.968" filterUnits="userSpaceOnUse" color-interpolation-filters="sRGB">
<feFlood flood-opacity="0" result="BackgroundImageFix"/>
<feColorMatrix in="SourceAlpha" type="matrix" values="0 0 0 0 0 0 0 0 0 0 0 0 0 0 0 0 0 0 127 0" result="hardAlpha"/>
<feOffset dy="4"/>
<feGaussianBlur stdDeviation="2"/>
<feComposite in2="hardAlpha" operator="out"/>
<feColorMatrix type="matrix" values="0 0 0 0 0 0 0 0 0 0 0 0 0 0 0 0 0 0 0.25 0"/>
<feBlend mode="normal" in2="BackgroundImageFix" result="effect1_dropShadow_2_139"/>
<feBlend mode="normal" in="SourceGraphic" in2="effect1_dropShadow_2_139" result="shape"/>
</filter>
</defs>
</svg>
