<svg width="32" height="43" viewBox="0 0 32 43" fill="none" xmlns="http://www.w3.org/2000/svg">
<path d="M31.0488 40.4029C30.6488 41.8029 28.4488 42.0029 27.3488 42.2029C23.4488 42.7029 7.8488 42.9029 3.9488 42.5029C2.8488 42.3029 0.548808 42.1029 0.148808 40.7029C-0.151192 39.5029 -0.0512038 38.3029 0.948796 37.5029C1.4488 37.1029 2.14878 36.9029 2.74878 36.9029C2.44878 36.0029 1.64881 35.2029 1.64881 34.1029C1.74881 32.9029 2.34878 31.9029 3.24878 31.2029C4.14878 30.6029 5.14883 30.3029 6.04883 29.7029C7.14883 29.1029 7.54883 28.1029 7.54883 26.9029C7.54883 26.7029 7.54882 26.5029 7.84882 26.4029C11.3488 24.8029 12.1488 19.6029 11.4488 16.2029C7.8488 15.0029 6.14881 11.3029 6.64881 7.60287C7.34881 3.30287 10.9488 0.802881 15.1488 0.702881C19.4488 0.702881 23.2488 3.20288 23.8488 7.40288C24.3488 11.1029 22.8488 14.9029 19.2488 16.1029C18.6488 19.6029 19.5488 24.7029 23.1488 26.2029C23.3488 26.3029 23.3488 26.5029 23.4488 26.7029C23.4488 28.0029 23.9488 29.0029 25.1488 29.6029C26.0488 30.1029 27.0488 30.4029 27.8488 31.0029C28.8488 31.8029 29.4488 32.8029 29.4488 34.0029C29.3488 35.0029 28.7488 35.8029 28.4488 36.6029C30.3488 36.4029 31.6488 38.6029 31.0488 40.4029Z" fill="white"/>
</svg>
