<svg width="33" height="42" viewBox="0 0 33 42" fill="none" xmlns="http://www.w3.org/2000/svg">
<path d="M0.648815 17.6029C0.248815 17.3029 0.148767 16.9029 0.348767 16.5029C0.448767 16.2029 0.64884 15.9029 1.04884 15.8029C1.11551 15.8029 1.18212 15.8029 1.24879 15.8029C2.74879 15.8029 4.24879 15.8029 5.74879 15.6029C6.14879 12.4029 8.14879 9.80286 11.2488 8.90286C10.0488 7.50286 9.44877 5.70286 9.84877 3.80286C10.4488 1.10286 13.1488 0.00286865 15.8488 0.00286865C18.4488 0.00286865 21.4488 0.90285 21.8488 3.70285C22.2488 5.60285 21.7488 7.40286 20.6488 8.80286C23.6488 9.60286 25.7488 12.1029 26.2488 15.4029C27.7488 15.5029 29.2488 15.5029 30.7488 15.5029C30.8155 15.5029 30.8822 15.5029 30.9489 15.5029C31.3489 15.6029 31.5488 15.8029 31.6488 16.2029C31.8488 16.5028 31.7489 17.0028 31.4489 17.2029C31.3822 17.2695 31.3155 17.3362 31.2488 17.4029C28.6488 18.9029 27.0488 23.0029 26.8488 26.1029C29.3488 26.2029 31.6488 27.8029 32.0488 30.5029C32.1488 31.8029 31.9488 33.5029 30.7488 34.3029C30.6155 34.3695 30.5155 34.4029 30.4489 34.4029C31.4489 35.4029 31.9488 37.0028 31.3488 38.7029C30.4488 41.6029 27.8488 41.6029 25.3488 41.5029C25.2488 41.9029 7.44879 42.2029 7.24879 41.7029C4.84879 41.9029 1.84882 42.0029 1.14882 39.1029C0.648815 37.3029 1.04884 35.8028 2.04884 34.7029C1.91551 34.7029 1.81546 34.6695 1.74879 34.6029C0.448791 33.8029 0.248767 32.2029 0.348767 30.9029C0.548767 28.2029 2.94886 26.5029 5.44886 26.4029C5.14886 23.3029 3.44879 19.2029 0.748791 17.7029C0.682124 17.7029 0.648815 17.6695 0.648815 17.6029Z" fill="white"/>
</svg>
