<svg width="34" height="45" viewBox="0 0 34 45" fill="none" xmlns="http://www.w3.org/2000/svg">
<path d="M32.6084 43.074C31.2084 43.974 29.0084 43.974 27.4084 43.974C24.6084 44.174 10.9084 44.274 8.20842 44.274C6.50842 44.174 4.5084 44.174 3.0084 43.474C2.2084 43.074 2.10839 42.174 2.30839 41.274C2.60839 40.174 3.80839 39.674 4.80839 40.074C5.00839 40.174 5.20843 40.074 5.40843 39.774C5.60843 39.074 5.40839 38.074 5.30839 37.274C5.10839 36.274 4.90842 35.2407 4.70842 34.174C4.30842 32.674 4.0084 31.074 3.5084 29.574C2.8084 27.874 1.80838 26.374 1.10838 24.574C0.308379 22.474 0.00840322 19.874 0.00840322 17.674C-0.0915968 15.074 0.708403 12.874 2.0084 10.574C3.5084 7.87402 5.80839 5.07405 8.80839 3.97405C9.00839 3.87405 9.1084 3.57405 9.0084 3.47405L8.0084 0.0740214C10.4084 -0.525979 12.2084 2.67403 13.8084 4.17403C14.0084 4.27403 14.2084 4.27403 14.3084 4.27403C16.0084 3.87403 17.6084 4.87404 18.9084 5.87404C20.2084 6.87404 21.5084 8.07403 22.7084 9.17403C24.1084 10.474 25.4084 11.674 26.9084 12.874C26.9084 12.9407 26.9417 12.974 27.0084 12.974C29.1084 14.674 29.0084 18.074 26.7084 19.474C24.7084 20.674 22.7084 17.774 21.4084 16.674C21.3084 16.474 21.1084 16.474 21.0084 16.574C19.5084 16.874 17.8084 17.274 16.2084 16.874C16.0084 16.774 15.8084 16.974 15.7084 17.274C15.6084 18.274 16.0084 19.174 16.5084 20.074C17.0084 21.174 17.6084 22.274 18.2084 23.274C19.5084 25.274 21.3084 26.674 23.2084 28.074C26.9084 30.874 30.6084 34.274 30.1084 39.274C30.1084 39.774 30.4084 39.974 30.6084 39.774C31.6084 39.374 32.7084 39.774 33.1084 40.774C33.5084 41.574 33.4084 42.574 32.6084 43.074Z" fill="white"/>
</svg>
