<svg width="34" height="45" viewBox="0 0 34 45" fill="none" xmlns="http://www.w3.org/2000/svg">
<path d="M33.2488 43.6028C31.8488 44.5028 29.6488 44.5028 28.0488 44.6028C25.2488 44.7028 11.5488 44.9028 8.8488 44.8028C7.1488 44.8028 5.14878 44.8028 3.64878 44.0028C2.84878 43.6028 2.74877 42.7028 2.94877 41.9028C3.24877 40.8028 4.44877 40.3028 5.44877 40.7028C5.64877 40.8028 5.84881 40.7028 6.04881 40.4028C6.24881 39.6028 6.04877 38.7028 5.94877 37.9028C5.74877 36.8362 5.5488 35.8028 5.3488 34.8028C4.9488 33.2028 4.64878 31.7028 4.14878 30.2028C3.44878 28.5028 2.44876 26.9028 1.74876 25.2028C0.94876 23.0028 0.648784 20.5028 0.648784 18.2028C0.548784 15.6028 1.34878 13.4028 2.64878 11.2028C4.14878 8.50283 6.44877 5.70284 9.44877 4.50284C9.64877 4.40284 9.74878 4.20284 9.64878 4.00284L8.64878 0.602828C11.0488 0.00282776 12.8488 3.30283 14.4488 4.70283C14.6488 4.90283 14.8488 4.90282 14.9488 4.80282C16.6488 4.40282 18.2488 5.40283 19.5488 6.40283C20.8488 7.40283 22.1488 8.60283 23.3488 9.80282C24.7488 11.0028 26.0488 12.3028 27.5488 13.5028C27.5488 13.5028 27.5821 13.5362 27.6488 13.6028C29.7488 15.3028 29.6488 18.6028 27.3488 20.1028C25.3488 21.3028 23.3488 18.3028 22.0488 17.2028C21.9488 17.1028 21.7488 17.1028 21.6488 17.1028C20.1488 17.5028 18.4488 17.9028 16.8488 17.4028C16.6488 17.3028 16.4488 17.5028 16.3488 17.8028C16.2488 18.8028 16.6488 19.8028 17.1488 20.6028C17.6488 21.7028 18.2488 22.8028 18.8488 23.8028C20.1488 25.9028 21.9488 27.3028 23.8488 28.7028C27.5488 31.4028 31.2488 34.8028 30.7488 39.8028C30.7488 40.3028 31.0488 40.5028 31.2488 40.4028C32.2488 40.0028 33.3488 40.4028 33.7488 41.4028C34.1488 42.1028 34.0488 43.2028 33.2488 43.6028Z" fill="#403939"/>
</svg>
